<svg xmlns="http://www.w3.org/2000/svg" xmlns:xlink="http://www.w3.org/1999/xlink" fill="none" version="1.1" width="1024" height="1024" viewBox="0 0 28 28"><defs><mask id="master_svg0_1_42161/1_6804" style="mask-type:luminance" maskUnits="userSpaceOnUse" x="0" y="0" width="28" height="28"><path d="M28,0L0,0L0,28L28,28L28,0Z" fill="#FFFFFF" fill-opacity="1" style="mix-blend-mode:passthrough"/></mask></defs><g mask="url(#master_svg0_1_42161/1_6804)"><path d="M27.461395456488372,7.2725787609375L27.28963045648837,6.6450967609375L27.23376245648837,6.4719962609375L27.11095645648837,6.1137084609375L26.928825456488372,5.6463251609375L26.68146145648837,5.1028051609375L26.486469456488372,4.7272119609375L26.11713245648837,4.1213569609375L25.96076945648837,3.8937351609375L25.84395645648837,3.7344879609375L25.352642456488372,3.1433651609375L24.771120456488372,2.5704171609375L24.66200645648837,2.4760796609375L24.52970745648837,2.3652973609375L23.88977645648837,1.8927483609375L23.42506245648837,1.6036784609375L23.03594945648837,1.3916362609375L22.15381845648837,0.9909188709375L22.09795045648837,0.9692824509375L22.07651345648837,0.9606252909375L22.02838945648837,0.9424500509375L21.08351945648837,0.6326090709375L20.73049945648837,0.5391367709375L20.15925645648837,0.4093164509375L19.98744945648837,0.3755634409375L19.38619245648837,0.2708389709375L18.82440045648837,0.1938126809375L18.57445545648837,0.1643865409375L18.040180456488372,0.1133230809375L17.59008045648837,0.0787021969375L17.11679445648837,0.0518727639375L16.69416845648837,0.0336984279375L16.301599456488372,0.0207167449375L15.728649456488371,0.008598824037500001L15.34815645648837,0.0042724609375L14.974488456488372,0.0042724609375L14.373188456488371,0.0042724609375L13.62847545648837,0.0042724609375L13.02717545648837,0.0042724609375L12.653550456488372,0.0042724609375L12.272137456488371,0.008598824037500001L11.699231456488372,0.0207167449375L11.306662456488372,0.0336984279375L10.884037456488372,0.0518727639375L10.410749456488372,0.0787021969375L9.960650456488372,0.1133230809375L9.427249956488371,0.1643865409375L9.17726325648837,0.1938126809375L8.614637356488371,0.2708389709375L8.01333805648837,0.3755634409375L7.841574656488371,0.4093164509375L7.269456356488371,0.5391367709375L6.917268756488371,0.6326090709375L5.972400156488371,0.9424500509375L5.925193756488371,0.9606252909375L5.903712256488371,0.9692824509375L5.847012556488371,0.9909188709375L4.968293656488371,1.3864402609375L4.579181156488371,1.5984867609375L4.115322156488371,1.8875567609375L3.471951956488371,2.3627016609375L3.342246256488371,2.4708878609375L3.233146956488371,2.5652253609375L2.6490449564883707,3.1416346609375L2.157719356488371,3.7327577609375L2.041751356488371,3.8920044609375L1.8819894564883708,4.1161651609375L1.513487456488371,4.7219939609375L1.317631856488371,5.0976314609375L1.0702475564883709,5.6411509609375L0.8881468864883709,6.1084904609375L0.7653187664883709,6.4685177609375L0.7094806564883709,6.6416177609375L0.5376874964883709,7.2691006609375L0.4328948964883709,7.7286572609375L0.4097008264883709,7.8360128609375L0.3770589664883709,8.000416760937501L0.2301779464883709,8.8918762609375L0.1898032564883709,9.2052039609375L0.1459946164883709,9.6050605609375L0.0996117484883709,10.1243174609375L0.0686901174883709,10.5717864609375L0.042921986488370895,11.0763464609375L0.029175475488370895,11.4225474609375L0.015434168288370895,11.9418464609375L0.005981456488370895,12.4836274609375L0.005981456488370895,12.7666494609375L0.005981456488370895,13.3110384609375L0.005981456488370895,14.6802294609375L0.005981456488370895,15.2246184609375L0.005981456488370895,15.5084654609375L0.015434168288370895,16.0494214609375L0.029175475488370895,16.5686764609375L0.042921986488370895,16.9148764609375L0.0686901174883709,17.4194814609375L0.0996117484883709,17.8660354609375L0.1459946164883709,18.3853374609375L0.1898032564883709,18.7851924609375L0.2301779464883709,19.0984784609375L0.3770589664883709,19.9908064609375L0.4097008264883709,20.1543844609375L0.4328948964883709,20.2625654609375L0.5385450264883709,20.7195124609375L0.7103424764883709,21.3469964609375L0.7661762964883709,21.5200974609375L0.8890131864883709,21.8792974609375L1.071109456488371,22.3466374609375L1.318502556488371,22.8901554609375L1.5143406564883708,23.2649254609375L1.882846856488371,23.8707544609375L2.040040756488371,24.0975094609375L2.1559999564883707,24.2567404609375L2.647325756488371,24.8478694609375L3.228854856488371,25.4208294609375L3.337949956488371,25.5151404609375L3.470223956488371,25.6259304609375L4.110167956488371,26.0993574609375L4.575725056488371,26.3875544609375L4.964837556488371,26.5996134609375L5.843556456488371,26.9951214609375L5.900256656488371,27.0176444609375L5.921737656488371,27.0254284609375L5.968987456488371,27.0436024609375L6.913856056488371,27.3534524609375L7.266044156488371,27.4468954609375L7.838119056488371,27.5767304609375L8.009924856488372,27.6104714609375L8.611225156488372,27.7152214609375L9.173850056488371,27.7930964609375L9.42379375648837,27.8216624609375L9.957237256488371,27.8735804609375L10.40733745648837,27.9073214609375L10.88062545648837,27.9350184609375L11.303250456488371,27.9531934609375L11.69577545648837,27.9653264609375L12.26872545648837,27.9774574609375L12.65009345648837,27.9774574609375L13.02376245648837,27.9774574609375L13.62506245648837,27.9774574609375L14.36977445648837,27.9774574609375L14.971075456488371,27.9774574609375L15.344699456488371,27.9774574609375L15.72523745648837,27.9774574609375L16.29818745648837,27.9653264609375L16.69071245648837,27.9531934609375L17.11333645648837,27.9350184609375L17.58662645648837,27.9073214609375L18.036724456488372,27.8735804609375L18.57100145648837,27.8216624609375L18.82098745648837,27.7930964609375L19.38273645648837,27.7152214609375L19.98403745648837,27.6104714609375L20.15584345648837,27.5767304609375L20.72704345648837,27.4468954609375L21.08006245648837,27.3534524609375L22.02497445648837,27.0436024609375L22.07305745648837,27.0254284609375L22.09453745648837,27.0176444609375L22.15036245648837,26.9951214609375L23.02995645648837,26.5996134609375L23.41906945648837,26.3875544609375L23.88378145648837,26.0993574609375L24.523712456488372,25.6259304609375L24.65601345648837,25.5151404609375L24.76508145648837,25.4208294609375L25.34660745648837,24.8478694609375L25.83796345648837,24.2567404609375L25.95477445648837,24.0975094609375L26.11109345648837,23.8707544609375L26.48047445648837,23.2649254609375L26.675424456488372,22.8901554609375L26.92283045648837,22.3466374609375L27.10491945648837,21.8792974609375L27.22776945648837,21.5200974609375L27.28359445648837,21.3469964609375L27.45540045648837,20.7195124609375L27.56188745648837,20.2625654609375L27.58424345648837,20.1543844609375L27.61688045648837,19.9908064609375L27.76375045648837,19.0984784609375L27.80413045648837,18.7851924609375L27.84796945648837,18.3853374609375L27.89517445648837,17.8660354609375L27.92527545648837,17.4194814609375L27.95187345648837,16.9148764609375L27.96478045648837,16.5686764609375L27.97935145648837,16.0494214609375L27.98796845648837,15.5084654609375L27.98796845648837,15.2246184609375L27.98796845648837,14.6802294609375L27.98796845648837,13.3153414609375L27.98796845648837,12.7709534609375L27.98796845648837,12.4879754609375L27.97935145648837,11.9461514609375L27.96478045648837,11.4268944609375L27.95187345648837,11.0806954609375L27.92527545648837,10.5761334609375L27.89517445648837,10.1286654609375L27.84796945648837,9.6093654609375L27.80413045648837,9.2095088609375L27.76375045648837,8.8962240609375L27.61688045648837,8.0047654609375L27.58424345648837,7.8403177609375L27.56534345648837,7.7286572609375L27.461395456488372,7.2725787609375Z" fill="#6BFAC8" fill-opacity="1" style="mix-blend-mode:passthrough"/></g><path d="M21.4375,16.240918078125C21.4375,18.536831078124997,20.724331,20.326664078125,19.29795,21.610500078125C17.927525,22.856855078125,16.0909443,23.480034078125,13.788250399999999,23.480034078125L6.125,23.480034078125L6.125,11.152445278125C6.125,8.865923878124999,6.83816886,7.076048878125,8.26455,5.782863178125C9.6349752,4.536507788125,11.476237300000001,3.913330078125,13.788250399999999,3.913330078125C16.0909443,3.913330078125,17.927525,4.536507788125,19.29795,5.782863178125C20.724331,7.076048878125,21.4375,8.865923878124999,21.4375,11.152445278125L21.4375,16.240918078125ZM13.788250399999999,21.680809078125C15.4476871,21.680809078125,16.790155,21.212253078125,17.815657,20.275137078125C18.878431,19.309935078125,19.409819,18.002660078125,19.409819,16.353362078125002L19.409819,11.152445278125C19.409819,9.503146178125,18.878431,8.191220278125,17.815657,7.216624478125C16.790155,6.279509778125,15.4476871,5.8109521781249995,13.788250399999999,5.8109521781249995C12.119494,5.8109521781249995,10.7723436,6.279509778125,9.7468436,7.216624478125C8.6840689,8.191220278125,8.152681600000001,9.503146178125,8.152681600000001,11.152445278125L8.152681600000001,21.680809078125L13.788250399999999,21.680809078125Z" fill="#181818" fill-opacity="1" style="mix-blend-mode:passthrough"/><path d="M15.3125,12.25063896125C15.3125,11.98183578125,15.407525539,11.75938392125,15.59761834,11.58324021125C15.78771281,11.39787830425,16.01853752,11.30517578125,16.29009414,11.30517578125L17.0625,11.30517578125C17.1832938,11.30517578125,17.28125,11.40253092325,17.28125,11.52258359125L17.28125,12.75119838125C17.28125,13.02000148125,17.1862245,13.24710598125,16.9961317,13.43246798125C16.8060372,13.608611581249999,16.5707064,13.69666168125,16.29009414,13.69666168125L15.53125,13.69666168125C15.410456181,13.69666168125,15.3125,13.59930658125,15.3125,13.47925378125L15.3125,12.25063896125Z" fill="#181818" fill-opacity="1" style="mix-blend-mode:passthrough"/><path d="M12.6875,12.25063896125C12.6875,11.98183578125,12.5924753,11.75938392125,12.4023817,11.58324021125C12.2122872,11.39787830425,11.9814625,11.30517578125,11.70990586,11.30517578125L10.9375,11.30517578125C10.816706181,11.30517578125,10.71875,11.40253092325,10.71875,11.52258359125L10.71875,12.75119838125C10.71875,13.02000148125,10.813774705,13.24710598125,11.00386834,13.43246798125C11.19396281,13.608611581249999,11.42929363,13.69666168125,11.70990586,13.69666168125L12.46875,13.69666168125C12.5895438,13.69666168125,12.6875,13.59930658125,12.6875,13.47925378125L12.6875,12.25063896125Z" fill="#181818" fill-opacity="1" style="mix-blend-mode:passthrough"/></svg>
